<svg width="100" height="100" viewBox="0 0 100 100" fill="none" xmlns="http://www.w3.org/2000/svg">
<path d="M50 95C74.8528 95 95 74.8528 95 50C95 25.1472 74.8528 5 50 5C25.1472 5 5 25.1472 5 50C5 63.2 11.334 74.912 21.0526 82.9474L10 90L21.0526 82.9474C29.6534 90.505 40.2 95 50 95Z" fill="hsl(197, 71%, 53%)" stroke="hsl(208, 100%, 97%)" stroke-width="4"/>
<path d="M50 70C61.0457 70 70 61.0457 70 50C70 38.9543 61.0457 30 50 30C38.9543 30 30 38.9543 30 50C30 61.0457 38.9543 70 50 70Z" stroke="hsl(0, 0%, 100%)" stroke-width="3"/>
<path d="M30 50H70" stroke="hsl(0, 0%, 100%)" stroke-width="3"/>
<path d="M50 30C55 35 60 45 60 50C60 55 55 65 50 70" stroke="hsl(0, 0%, 100%)" stroke-width="3"/>
<path d="M50 30C45 35 40 45 40 50C40 55 45 65 50 70" stroke="hsl(0, 0%, 100%)" stroke-width="3"/>
</svg>
